<svg width="70" height="66" viewBox="0 0 70 66" fill="none" xmlns="http://www.w3.org/2000/svg">
<g filter="url(#filter0_d_375_41)">
<ellipse cx="35" cy="29" rx="31" ry="29" fill="#555B6E"/>
</g>
<g filter="url(#filter1_d_375_41)">
<path d="M50 23.25V39.3214C50 40.8002 48.7402 42 47.1875 42H22.8125C21.2598 42 20 40.8002 20 39.3214V23.25C20 21.7712 21.2598 20.5714 22.8125 20.5714H27.9688L28.6895 18.7355C29.0996 17.692 30.1484 17 31.3203 17H38.6738C39.8457 17 40.8945 17.692 41.3047 18.7355L42.0312 20.5714H47.1875C48.7402 20.5714 50 21.7712 50 23.25ZM42.0312 31.2857C42.0312 27.5915 38.8789 24.5893 35 24.5893C31.1211 24.5893 27.9688 27.5915 27.9688 31.2857C27.9688 34.9799 31.1211 37.9821 35 37.9821C38.8789 37.9821 42.0312 34.9799 42.0312 31.2857ZM40.1562 31.2857C40.1562 33.9922 37.8418 36.1964 35 36.1964C32.1582 36.1964 29.8438 33.9922 29.8438 31.2857C29.8438 28.5792 32.1582 26.375 35 26.375C37.8418 26.375 40.1562 28.5792 40.1562 31.2857Z" fill="#F6FFF8"/>
</g>
<defs>
<filter id="filter0_d_375_41" x="0" y="0" width="70" height="66" filterUnits="userSpaceOnUse" color-interpolation-filters="sRGB">
<feFlood flood-opacity="0" result="BackgroundImageFix"/>
<feColorMatrix in="SourceAlpha" type="matrix" values="0 0 0 0 0 0 0 0 0 0 0 0 0 0 0 0 0 0 127 0" result="hardAlpha"/>
<feOffset dy="4"/>
<feGaussianBlur stdDeviation="2"/>
<feComposite in2="hardAlpha" operator="out"/>
<feColorMatrix type="matrix" values="0 0 0 0 0 0 0 0 0 0 0 0 0 0 0 0 0 0 0.25 0"/>
<feBlend mode="normal" in2="BackgroundImageFix" result="effect1_dropShadow_375_41"/>
<feBlend mode="normal" in="SourceGraphic" in2="effect1_dropShadow_375_41" result="shape"/>
</filter>
<filter id="filter1_d_375_41" x="16" y="17" width="38" height="33" filterUnits="userSpaceOnUse" color-interpolation-filters="sRGB">
<feFlood flood-opacity="0" result="BackgroundImageFix"/>
<feColorMatrix in="SourceAlpha" type="matrix" values="0 0 0 0 0 0 0 0 0 0 0 0 0 0 0 0 0 0 127 0" result="hardAlpha"/>
<feOffset dy="4"/>
<feGaussianBlur stdDeviation="2"/>
<feComposite in2="hardAlpha" operator="out"/>
<feColorMatrix type="matrix" values="0 0 0 0 0 0 0 0 0 0 0 0 0 0 0 0 0 0 0.25 0"/>
<feBlend mode="normal" in2="BackgroundImageFix" result="effect1_dropShadow_375_41"/>
<feBlend mode="normal" in="SourceGraphic" in2="effect1_dropShadow_375_41" result="shape"/>
</filter>
</defs>
</svg>
